<svg width="415" height="416" viewBox="0 0 415 416" fill="none" xmlns="http://www.w3.org/2000/svg">
<g filter="url(#filter0_b_1414_2415)">
<rect width="415" height="416" rx="15" fill="#222222"/>
</g>
<g filter="url(#filter1_b_1414_2415)">
<path d="M0 14C0 6.26801 6.26801 0 14 0H401C408.732 0 415 6.26801 415 14V66.4855H0V14Z" fill="#373737"/>
</g>
<rect x="22.5" y="94.5" width="371" height="294" stroke="#25ADF9" stroke-dasharray="2 2"/>
<g clip-path="url(#clip0_1414_2415)">
<path d="M23.1757 43C23.0196 43 22.8668 42.9698 22.724 42.9095C22.2856 42.7284 22 42.2958 22 41.8129V25.1871C22 24.7042 22.2856 24.275 22.7273 24.0906C23.169 23.9061 23.6705 24.0067 24.0093 24.3488L35.2813 35.7669C35.6167 36.1056 35.7196 36.6153 35.537 37.0613C35.3543 37.5072 34.9292 37.7956 34.451 37.7956H28.7917L24.0126 42.6546C23.7901 42.8793 23.4945 43.0034 23.179 43.0034L23.1757 43ZM23.3285 25.5593V41.4407L28.2371 36.4509H34.0823L23.3285 25.5593Z" fill="white"/>
<path d="M41.6686 35.2404L44.4318 32.4504C44.4949 32.3867 44.5314 32.2995 44.5314 32.2089C44.5314 32.1184 44.4949 32.0312 44.4318 31.9675L44.2292 31.763C44.0964 31.6288 43.8805 31.6288 43.7476 31.763L41.4262 34.1069L39.1047 31.763C39.0416 31.6992 38.9552 31.6624 38.8656 31.6624C38.7759 31.6624 38.6895 31.6992 38.6264 31.763L38.4239 31.9675C38.3608 32.0312 38.3242 32.1184 38.3242 32.2089C38.3242 32.2995 38.3608 32.3867 38.4239 32.4504L41.1904 35.2437C41.2535 35.3074 41.3398 35.3443 41.4328 35.3443C41.5258 35.3443 41.6088 35.3074 41.6753 35.2437L41.6686 35.2404Z" fill="white"/>
<path d="M74.7067 42.175L79.0541 37.7855C79.2533 37.5843 79.2533 37.2557 79.0541 37.0545L76.8123 34.791C76.613 34.5898 76.2876 34.5898 76.0883 34.791L75.8658 35.0157L72.9332 29.0937C72.8767 28.9797 72.7804 28.8925 72.6642 28.8455L62.4218 24.7075C62.4218 24.7075 62.4218 24.7075 62.4185 24.7075C62.4052 24.7008 62.3919 24.6974 62.3786 24.6941C62.3487 24.684 62.3155 24.6773 62.2856 24.674C62.1495 24.6572 62.0166 24.7008 61.9136 24.7813C61.9103 24.7813 61.907 24.788 61.9037 24.7913C61.7542 24.9154 61.6945 25.1065 61.7277 25.2876C61.7277 25.301 61.7343 25.3145 61.7376 25.3279V25.3346C61.7443 25.3513 61.7476 25.3681 61.7542 25.3849L65.8525 35.7266C65.899 35.8439 65.9854 35.9412 66.0983 35.9982L71.9634 38.9592L71.7409 39.1839C71.6413 39.2845 71.5915 39.4186 71.5915 39.5494C71.5915 39.6801 71.6413 39.8143 71.7409 39.9149L73.9827 42.1784C74.182 42.3796 74.5074 42.3796 74.7067 42.1784V42.175ZM66.7293 35.1565L63.6307 27.3332L68.0146 31.7596C67.9183 31.9608 67.8651 32.1888 67.8651 32.4269C67.8651 33.282 68.5559 33.9795 69.4028 33.9795C70.2497 33.9795 70.9405 33.282 70.9405 32.4269C70.9405 31.5718 70.2497 30.8743 69.4028 30.8743C69.167 30.8743 68.9412 30.9279 68.7419 31.0252L64.358 26.5988L72.1062 29.7274L75.1052 35.7802L72.7306 38.1779L66.7359 35.1498L66.7293 35.1565ZM69.3995 31.9105C69.6818 31.9105 69.911 32.1418 69.911 32.4269C69.911 32.7119 69.6818 32.9433 69.3995 32.9433C69.1172 32.9433 68.888 32.7119 68.888 32.4269C68.888 32.1418 69.1172 31.9105 69.3995 31.9105ZM72.8236 39.546L73.1923 39.1738L76.075 36.2631L76.4436 35.8909L77.9614 37.4234L74.338 41.0818L72.8203 39.5494L72.8236 39.546Z" fill="white"/>
<path d="M84.9713 35.2404L87.7345 32.4504C87.7976 32.3867 87.8342 32.2995 87.8342 32.2089C87.8342 32.1184 87.7976 32.0312 87.7345 31.9675L87.532 31.763C87.3991 31.6288 87.1832 31.6288 87.0504 31.763L84.7289 34.1069L82.4074 31.763C82.3443 31.6992 82.258 31.6624 82.1683 31.6624C82.0786 31.6624 81.9923 31.6992 81.9292 31.763L81.7266 31.9675C81.6635 32.0312 81.627 32.1184 81.627 32.2089C81.627 32.2995 81.6635 32.3867 81.7266 32.4504L84.4931 35.2437C84.5562 35.3074 84.6426 35.3443 84.7355 35.3443C84.8285 35.3443 84.9116 35.3074 84.978 35.2437L84.9713 35.2404Z" fill="white"/>
<path d="M107.454 26.8772H111.824V29.0837H112.917V25.7739H100.895V29.0837H101.987V26.8772H106.358V40.1195H104.172V41.2227H109.639V40.1195H107.454V26.8772Z" fill="white"/>
<path d="M118.805 35.2404L121.569 32.4504C121.632 32.3867 121.668 32.2995 121.668 32.2089C121.668 32.1184 121.632 32.0312 121.569 31.9675L121.366 31.763C121.233 31.6288 121.017 31.6288 120.884 31.763L118.563 34.1069L116.241 31.763C116.178 31.6992 116.092 31.6624 116.002 31.6624C115.913 31.6624 115.826 31.6992 115.763 31.763L115.561 31.9675C115.497 32.0312 115.461 32.1184 115.461 32.2089C115.461 32.2995 115.497 32.3867 115.561 32.4504L118.327 35.2437C118.39 35.3074 118.477 35.3443 118.57 35.3443C118.663 35.3443 118.746 35.3074 118.812 35.2437L118.805 35.2404Z" fill="white"/>
<path d="M150.571 32.2123C150.122 31.8401 149.485 31.7227 148.95 31.9105C148.807 31.9608 148.674 32.0312 148.555 32.1184C148.249 32.3431 147.575 33.0238 147.04 33.6945V28.5203C147.04 28.081 146.861 27.6518 146.549 27.3399C146.24 27.0314 145.832 26.8671 145.403 26.8738C145.21 26.8771 145.024 26.9174 144.852 26.9844V26.4781C144.852 25.9986 144.656 25.5325 144.317 25.1938C143.982 24.8584 143.54 24.6773 143.072 24.6874C142.142 24.7042 141.381 25.4654 141.355 26.401C141.152 26.3071 140.933 26.2568 140.707 26.2501C140.235 26.2367 139.767 26.4211 139.425 26.7564C139.09 27.085 138.904 27.521 138.904 27.9804V28.47C138.757 28.423 138.601 28.3962 138.442 28.3962C137.632 28.3962 136.971 29.0635 136.971 29.8817V37.4066V37.4435C137.037 38.4294 137.243 39.2778 137.578 39.9551C137.894 40.5923 138.332 41.1053 138.884 41.4809C139.97 42.2186 141.311 42.3125 142.358 42.3125C144.413 42.3125 146.263 41.2797 147.19 39.6165C147.303 39.432 147.598 38.9626 147.921 38.4562C148.233 37.9599 148.522 37.5039 148.777 37.1048C148.917 36.8835 149.046 36.6823 149.156 36.5079C149.571 35.854 150.01 35.2202 150.468 34.6267C150.637 34.4054 150.69 34.345 150.7 34.3316C150.913 34.0969 151.049 33.8085 151.089 33.5C151.152 33.0137 150.963 32.5476 150.564 32.219L150.571 32.2123ZM150.079 33.3558C150.066 33.4564 150.023 33.5469 149.95 33.6274C149.913 33.6676 149.847 33.7448 149.661 33.9896C149.186 34.6099 148.728 35.2672 148.299 35.9479C148.19 36.1223 148.06 36.3235 147.921 36.5448C147.665 36.9472 147.373 37.4033 147.06 37.9029C146.732 38.4227 146.429 38.9056 146.32 39.0866L146.31 39.1068C145.566 40.4481 144.055 41.2831 142.364 41.2831C141.461 41.2831 140.318 41.2093 139.462 40.6258C138.588 40.0323 138.11 38.9726 137.997 37.3898V29.8851C137.997 29.6369 138.196 29.4324 138.442 29.4324C138.688 29.4324 138.89 29.6336 138.89 29.8851V32.7019C138.89 32.7019 138.89 32.7186 138.89 32.7254C138.89 32.7354 138.89 32.7421 138.89 32.7522C138.89 32.7589 138.89 32.7689 138.894 32.7757C138.894 32.7857 138.894 32.7924 138.897 32.8025C138.897 32.8092 138.9 32.8192 138.904 32.826C138.904 32.836 138.907 32.8427 138.91 32.8528C138.91 32.8595 138.917 32.8695 138.92 32.8763C138.92 32.883 138.927 32.893 138.93 32.8997C138.93 32.9064 138.937 32.9165 138.94 32.9232C138.943 32.9299 138.947 32.94 138.95 32.9467C138.953 32.9534 138.96 32.9601 138.963 32.9668C138.967 32.9735 138.97 32.9802 138.977 32.9869C138.98 32.9936 138.987 33.0003 138.99 33.007C138.993 33.0137 139 33.0204 139.003 33.0272C139.007 33.0339 139.013 33.0406 139.02 33.0439C139.026 33.0506 139.03 33.0573 139.036 33.064C139.043 33.0707 139.05 33.0741 139.053 33.0808C139.06 33.0875 139.066 33.0909 139.073 33.0976C139.08 33.1043 139.086 33.1076 139.093 33.111C139.1 33.1177 139.106 33.121 139.113 33.1278C139.119 33.1311 139.126 33.1345 139.133 33.1412C139.139 33.1445 139.146 33.1512 139.156 33.1546C139.163 33.1579 139.169 33.1613 139.176 33.1646C139.183 33.168 139.193 33.1713 139.199 33.1747C139.206 33.1747 139.216 33.1814 139.222 33.1848C139.229 33.1848 139.239 33.1915 139.246 33.1948C139.252 33.1948 139.262 33.1982 139.269 33.2015C139.279 33.2015 139.286 33.2049 139.292 33.2082C139.302 33.2082 139.309 33.2082 139.319 33.2116C139.329 33.2116 139.335 33.2116 139.345 33.2149C139.355 33.2149 139.362 33.2149 139.372 33.2149C139.382 33.2149 139.388 33.2149 139.398 33.2149C139.415 33.2149 139.435 33.2149 139.452 33.2149C139.458 33.2149 139.465 33.2149 139.475 33.2116C139.485 33.2116 139.495 33.2116 139.505 33.2082C139.515 33.2082 139.525 33.2049 139.535 33.2015C139.541 33.2015 139.548 33.2015 139.555 33.1948C139.565 33.1915 139.574 33.1881 139.584 33.1848C139.591 33.1848 139.594 33.1814 139.601 33.1781C139.611 33.1747 139.621 33.168 139.631 33.1646C139.634 33.1646 139.641 33.1613 139.644 33.1579C139.654 33.1512 139.661 33.1479 139.671 33.1412C139.677 33.1412 139.681 33.1345 139.687 33.1311C139.694 33.1244 139.704 33.1177 139.711 33.1143C139.717 33.111 139.721 33.1076 139.727 33.1043C139.734 33.0976 139.741 33.0909 139.747 33.0842C139.754 33.0808 139.757 33.0741 139.764 33.0707C139.77 33.064 139.777 33.0573 139.78 33.0506C139.784 33.0439 139.79 33.0406 139.794 33.0339C139.8 33.0272 139.804 33.0204 139.81 33.0137C139.814 33.007 139.82 33.0003 139.824 32.9936C139.827 32.9869 139.834 32.9802 139.837 32.9735C139.84 32.9668 139.847 32.9601 139.85 32.9534C139.853 32.9467 139.857 32.94 139.86 32.9299C139.863 32.9232 139.867 32.9131 139.87 32.9064C139.87 32.8997 139.877 32.8897 139.88 32.883C139.88 32.8763 139.887 32.8662 139.89 32.8595C139.89 32.8528 139.893 32.8427 139.897 32.836C139.897 32.826 139.9 32.8192 139.903 32.8092C139.903 32.8025 139.903 32.7924 139.907 32.7857C139.907 32.7757 139.907 32.7689 139.91 32.7589C139.91 32.7522 139.91 32.7421 139.91 32.7321C139.91 32.722 139.91 32.7153 139.91 32.7052L139.923 27.9871C139.923 27.8094 139.996 27.6383 140.132 27.5042C140.279 27.36 140.475 27.2829 140.674 27.2896C141.042 27.2997 141.345 27.6249 141.345 28.0139L141.351 32.6751C141.351 32.6751 141.351 32.6952 141.351 32.7019C141.351 32.7086 141.351 32.7186 141.351 32.7254C141.351 32.7354 141.351 32.7455 141.355 32.7522C141.355 32.7589 141.355 32.7689 141.358 32.7757C141.358 32.7857 141.365 32.7958 141.365 32.8058C141.365 32.8125 141.365 32.8192 141.368 32.826C141.371 32.836 141.375 32.8461 141.378 32.8561C141.378 32.8628 141.381 32.8662 141.385 32.8729C141.388 32.883 141.394 32.8964 141.401 32.9064C141.401 32.9098 141.404 32.9131 141.408 32.9198C141.414 32.9299 141.421 32.94 141.428 32.9534C141.428 32.9567 141.431 32.9601 141.434 32.9634C141.441 32.9735 141.448 32.9836 141.458 32.9936C141.458 32.9936 141.461 33.0003 141.464 33.0037C141.474 33.0137 141.481 33.0238 141.491 33.0339C141.491 33.0339 141.494 33.0372 141.497 33.0406C141.507 33.0506 141.517 33.0607 141.527 33.0674C141.527 33.0674 141.531 33.0707 141.534 33.0741C141.544 33.0842 141.554 33.0909 141.567 33.0976C141.567 33.0976 141.57 33.1009 141.574 33.1043C141.584 33.111 141.597 33.1177 141.607 33.1244C141.607 33.1244 141.61 33.1244 141.614 33.1278C141.627 33.1345 141.637 33.1412 141.65 33.1445C141.65 33.1445 141.654 33.1445 141.657 33.1479C141.67 33.1546 141.683 33.1579 141.697 33.1613C141.697 33.1613 141.7 33.1613 141.703 33.1613C141.717 33.1646 141.73 33.168 141.743 33.1713H141.75C141.783 33.1781 141.816 33.1814 141.853 33.1814C141.853 33.1814 141.869 33.1814 141.879 33.1814C141.889 33.1814 141.896 33.1814 141.906 33.1814C141.916 33.1814 141.923 33.1814 141.932 33.1781C141.939 33.1781 141.949 33.1781 141.956 33.1747C141.966 33.1747 141.972 33.1713 141.982 33.168C141.989 33.168 141.996 33.1646 142.006 33.1613C142.016 33.1613 142.022 33.1546 142.032 33.1512C142.039 33.1512 142.045 33.1479 142.052 33.1445C142.062 33.1412 142.069 33.1345 142.079 33.1311C142.085 33.1311 142.092 33.1244 142.095 33.121C142.105 33.1177 142.112 33.111 142.122 33.1043C142.128 33.1009 142.132 33.0976 142.138 33.0942C142.145 33.0875 142.155 33.0842 142.162 33.0775C142.168 33.0741 142.172 33.0707 142.178 33.064C142.185 33.0573 142.192 33.0506 142.198 33.0439C142.202 33.0406 142.208 33.0339 142.215 33.0305C142.221 33.0238 142.228 33.0171 142.235 33.0104C142.238 33.0037 142.245 33.0003 142.248 32.9936C142.255 32.9869 142.258 32.9802 142.265 32.9735C142.268 32.9668 142.275 32.9601 142.278 32.9567C142.281 32.95 142.288 32.9433 142.291 32.9333C142.295 32.9266 142.301 32.9198 142.304 32.9131C142.308 32.9064 142.311 32.8964 142.314 32.8897C142.318 32.883 142.321 32.8763 142.324 32.8662C142.324 32.8595 142.331 32.8494 142.331 32.8427C142.331 32.836 142.338 32.826 142.341 32.8192C142.341 32.8125 142.344 32.8025 142.348 32.7958C142.348 32.7891 142.351 32.779 142.354 32.7723C142.354 32.7622 142.354 32.7555 142.358 32.7455C142.358 32.7354 142.358 32.7287 142.361 32.7186C142.361 32.7086 142.361 32.7019 142.361 32.6918C142.361 32.6818 142.361 32.6751 142.361 32.665V26.4546C142.361 26.0589 142.68 25.7303 143.072 25.7236C143.261 25.7236 143.44 25.794 143.58 25.9349C143.726 26.079 143.809 26.2769 143.809 26.4814V32.6985C143.809 32.6985 143.809 32.7186 143.809 32.7254C143.809 32.7321 143.809 32.7421 143.809 32.7488C143.809 32.7589 143.809 32.7656 143.812 32.7757C143.812 32.7824 143.812 32.7924 143.816 32.7991C143.816 32.8092 143.819 32.8159 143.822 32.826C143.822 32.8327 143.826 32.8427 143.829 32.8494C143.829 32.8595 143.836 32.8695 143.839 32.8763C143.839 32.883 143.842 32.8897 143.845 32.8964C143.849 32.9064 143.855 32.9165 143.859 32.9232C143.859 32.9299 143.865 32.9333 143.865 32.94C143.872 32.95 143.875 32.9601 143.882 32.9668C143.882 32.9701 143.889 32.9769 143.892 32.9802C143.899 32.9903 143.905 32.997 143.912 33.007C143.915 33.0104 143.919 33.0171 143.922 33.0204C143.928 33.0305 143.938 33.0372 143.945 33.0473C143.945 33.0473 143.952 33.054 143.955 33.0573C143.965 33.0674 143.972 33.0741 143.982 33.0808C143.985 33.0808 143.988 33.0875 143.992 33.0909C144.002 33.1009 144.012 33.1076 144.021 33.1143C144.021 33.1143 144.028 33.1177 144.028 33.121C144.038 33.1278 144.051 33.1345 144.065 33.1412C144.065 33.1412 144.068 33.1412 144.071 33.1445C144.085 33.1512 144.098 33.1579 144.111 33.1646C144.111 33.1646 144.111 33.1646 144.114 33.1646C144.128 33.1713 144.144 33.1747 144.158 33.1814C144.191 33.1915 144.224 33.1982 144.257 33.2015C144.274 33.2015 144.291 33.2015 144.31 33.2015C144.31 33.2015 144.327 33.2015 144.337 33.2015C144.347 33.2015 144.354 33.2015 144.364 33.2015C144.374 33.2015 144.383 33.2015 144.39 33.1982C144.397 33.1982 144.407 33.1982 144.413 33.1948C144.423 33.1948 144.433 33.1915 144.443 33.1881C144.45 33.1881 144.457 33.1881 144.463 33.1814C144.473 33.1781 144.483 33.1747 144.493 33.1713C144.5 33.1713 144.503 33.168 144.51 33.1646C144.52 33.1613 144.53 33.1546 144.54 33.1512C144.543 33.1512 144.55 33.1479 144.553 33.1445C144.563 33.1378 144.573 33.1345 144.583 33.1278C144.586 33.1278 144.593 33.121 144.596 33.1177C144.606 33.111 144.616 33.1043 144.623 33.0976C144.626 33.0976 144.629 33.0909 144.636 33.0875C144.646 33.0808 144.653 33.0707 144.662 33.064C144.666 33.064 144.669 33.0573 144.672 33.054C144.679 33.0473 144.689 33.0372 144.696 33.0272C144.696 33.0238 144.702 33.0204 144.706 33.0171C144.712 33.007 144.719 32.997 144.726 32.9903C144.726 32.9869 144.732 32.9836 144.736 32.9769C144.742 32.9668 144.749 32.9567 144.752 32.9467C144.752 32.9433 144.759 32.9366 144.759 32.9333C144.765 32.9232 144.769 32.9131 144.772 32.9031C144.772 32.8997 144.775 32.893 144.779 32.8897C144.782 32.8796 144.785 32.8695 144.789 32.8595C144.789 32.8528 144.792 32.8494 144.795 32.8427C144.795 32.8327 144.802 32.8226 144.802 32.8125C144.802 32.8058 144.805 32.7991 144.805 32.7924C144.805 32.7824 144.805 32.7723 144.809 32.7622C144.809 32.7555 144.809 32.7488 144.809 32.7421C144.809 32.7321 144.809 32.722 144.809 32.7119C144.809 32.7052 144.809 32.6952 144.809 32.6885V28.423C144.842 28.1346 145.084 27.9066 145.377 27.8999C145.526 27.8999 145.672 27.9569 145.785 28.0676C145.901 28.1849 145.971 28.3459 145.971 28.5102V34.6334C145.971 34.9687 146.194 35.2504 146.512 35.3376C146.831 35.4248 147.157 35.2873 147.326 34.9989V34.9922C147.731 34.2847 148.804 33.1747 149.116 32.9433C149.153 32.9165 149.193 32.893 149.239 32.8796C149.442 32.8092 149.697 32.8595 149.877 33.0037C149.96 33.0741 150.056 33.1881 150.033 33.3457L150.079 33.3558Z" fill="white"/>
<path d="M157.284 35.2404L160.047 32.4504C160.11 32.3867 160.147 32.2995 160.147 32.2089C160.147 32.1184 160.11 32.0312 160.047 31.9675L159.844 31.763C159.712 31.6288 159.496 31.6288 159.363 31.763L157.041 34.1069L154.72 31.763C154.657 31.6992 154.57 31.6624 154.481 31.6624C154.391 31.6624 154.305 31.6992 154.242 31.763L154.039 31.9675C153.976 32.0312 153.939 32.1184 153.939 32.2089C153.939 32.2995 153.976 32.3867 154.039 32.4504L156.806 35.2437C156.869 35.3074 156.955 35.3443 157.048 35.3443C157.141 35.3443 157.224 35.3074 157.29 35.2437L157.284 35.2404Z" fill="white"/>
<path d="M182.149 24.6707C177.327 24.6707 173.404 28.6309 173.404 33.5C173.404 35.1968 173.876 36.8265 174.769 38.2315L173.444 41.5715C173.364 41.776 173.411 42.0108 173.567 42.1684C173.67 42.2723 173.809 42.3293 173.952 42.3293C174.022 42.3293 174.088 42.3159 174.155 42.2891L177.463 40.9511C178.854 41.8531 180.468 42.3293 182.149 42.3293C186.971 42.3293 190.893 38.369 190.893 33.5C190.893 28.6309 186.971 24.6707 182.149 24.6707ZM182.149 41.2261C180.591 41.2261 179.097 40.76 177.835 39.878C177.742 39.8143 177.632 39.7808 177.526 39.7808C177.456 39.7808 177.39 39.7942 177.323 39.821L174.935 40.7868L175.892 38.3757C175.958 38.2047 175.938 38.0069 175.835 37.856C174.962 36.5817 174.5 35.0761 174.5 33.5C174.5 29.2413 177.931 25.7739 182.152 25.7739C186.373 25.7739 189.804 29.2379 189.804 33.5C189.804 37.7621 186.373 41.2261 182.152 41.2261H182.149Z" fill="white"/>
<path d="M197.137 35.2404L199.901 32.4504C199.964 32.3867 200 32.2995 200 32.2089C200 32.1184 199.964 32.0312 199.901 31.9675L199.698 31.763C199.565 31.6288 199.349 31.6288 199.216 31.763L196.895 34.1069L194.573 31.763C194.51 31.6992 194.424 31.6624 194.334 31.6624C194.245 31.6624 194.158 31.6992 194.095 31.763L193.893 31.9675C193.829 32.0312 193.793 32.1184 193.793 32.2089C193.793 32.2995 193.829 32.3867 193.893 32.4504L196.659 35.2437C196.722 35.3074 196.809 35.3443 196.902 35.3443C196.995 35.3443 197.078 35.3074 197.144 35.2437L197.137 35.2404Z" fill="white"/>
</g>
<path d="M325.49 31.5028H318.027C318.025 29.6381 317.284 27.8502 315.967 26.5316C314.65 25.213 312.863 24.4714 311 24.4697V17C314.841 17.0052 318.524 18.5349 321.24 21.2536C323.957 23.9722 325.485 27.6581 325.49 31.5028Z" fill="white"/>
<path d="M325.49 46.4523H318.027C318.025 44.5875 317.284 42.7996 315.967 41.481C314.65 40.1624 312.863 39.4209 311 39.4191V31.9495C314.841 31.9547 318.524 33.4844 321.24 36.203C323.957 38.9217 325.485 42.6075 325.49 46.4523Z" fill="white"/>
<path d="M340.428 46.4523C336.586 46.4479 332.903 44.9185 330.186 42.1997C327.47 39.4808 325.942 35.7945 325.938 31.9495H333.401C333.403 33.8142 334.143 35.6021 335.461 36.9207C336.778 38.2393 338.565 38.9809 340.428 38.9826V46.4523Z" fill="white"/>
<path d="M340.428 31.5028C336.586 31.4976 332.904 29.9679 330.187 27.2493C327.471 24.5306 325.943 20.8448 325.938 17H333.401C333.403 18.8648 334.143 20.6527 335.461 21.9713C336.778 23.2899 338.565 24.0314 340.428 24.0332V31.5028Z" fill="white"/>
<rect x="52" y="123" width="317" height="53" rx="5" fill="#373737"/>
<g clip-path="url(#clip1_1414_2415)">
<path d="M98.4454 145.451V153.57H81.1886V145.451H98.4454ZM102.634 141.36H77V157.66H102.634V141.36Z" fill="#C7C7C7"/>
<path d="M160.96 137.045V161.955H135.452V137.045H160.96ZM163.054 135H133.357V164H163.054V135Z" fill="#C7C7C7"/>
<path d="M221.903 137.045V161.955H196.395V137.045H221.903ZM223.998 135H194.301V164H223.998V135Z" fill="#C7C7C7"/>
<path d="M273.988 145.205V153.795H265.192V145.205H273.988ZM278.177 141.115H261.004V157.885H278.177V141.115Z" fill="#C7C7C7"/>
<path d="M102.634 135.164H77V137.209H102.634V135.164Z" fill="#C7C7C7"/>
<path d="M102.634 161.403H77V163.448H102.634V161.403Z" fill="#C7C7C7"/>
<path d="M146.07 141.115H139.787V157.415H146.07V141.115Z" fill="#C7C7C7"/>
<path d="M156.646 141.115H150.363V157.415H156.646V141.115Z" fill="#C7C7C7"/>
<path d="M207.014 141.36H200.814V147.414H207.014V141.36Z" fill="#C7C7C7"/>
<path d="M217.359 141.36H211.16V147.414H217.359V141.36Z" fill="#C7C7C7"/>
<path d="M207.014 151.238H200.814V157.292H207.014V151.238Z" fill="#C7C7C7"/>
<path d="M217.359 151.238H211.16V157.292H217.359V151.238Z" fill="#C7C7C7"/>
<path d="M257.213 137.291H255.119V161.423H257.213V137.291Z" fill="#C7C7C7"/>
<path d="M284.376 137.291H282.281V161.423H284.376V137.291Z" fill="#C7C7C7"/>
<path d="M316.817 137.291H314.723V161.423H316.817V137.291Z" fill="#C7C7C7"/>
<path d="M344.001 137.291H341.906V161.423H344.001V137.291Z" fill="#C7C7C7"/>
<path d="M326.22 153.897L324.503 159.398H320.754L327.121 140.01H331.749L338.199 159.398H334.304L332.503 153.897H326.199H326.22ZM331.895 151.218L330.325 146.432C329.948 145.246 329.613 143.937 329.32 142.812H329.257C328.963 143.937 328.67 145.287 328.314 146.432L326.785 151.218H331.875H331.895Z" fill="#C7C7C7"/>
</g>
<g clip-path="url(#clip2_1414_2415)">
<path d="M52 194L101.788 227.189H315.198C315.198 227.189 367.015 194 364.93 194H52Z" fill="#373737"/>
<path d="M364.986 361L314.817 327.811H102.168C102.168 327.811 49.9852 361 52.0561 361H364.986Z" fill="#373737"/>
<path d="M52 194L52.0564 361L102.168 327.797L101.788 227.189L52 194Z" fill="#464646"/>
<path d="M364.987 194L364.93 361L314.818 327.797L315.199 227.189L364.987 194Z" fill="#464646"/>
<path d="M108.143 233.81V321.12L159.072 287.945V266.702L108.143 233.81Z" fill="#464646"/>
<path d="M309.268 321.12V233.81L258.324 266.984V288.241L309.268 321.12Z" fill="#464646"/>
<path d="M159.072 287.945H258.324L309.267 321.12H108.143L159.072 287.945Z" fill="#373737"/>
<path d="M258.324 266.984H159.072L108.143 233.81H309.267L258.324 266.984Z" fill="#373737"/>
<g clip-path="url(#clip3_1414_2415)">
<path d="M226.844 262C226.783 262 226.722 261.989 226.664 261.964C226.489 261.892 226.375 261.721 226.375 261.531V246.469C226.375 246.279 226.489 246.108 226.664 246.036C226.84 245.963 227.041 246.004 227.175 246.137L237.488 256.481C237.622 256.615 237.662 256.817 237.589 256.992C237.517 257.167 237.346 257.281 237.156 257.281H231.725L227.175 261.863C227.085 261.952 226.966 262 226.844 262Z" fill="#25ADF9"/>
</g>
<rect x="243" y="250" width="36" height="15" rx="2" fill="#25ADF9"/>
<path d="M247.636 260V259.28H248.014C248.491 259.28 248.824 258.956 248.824 258.479V253.7H249.598V258.371C249.598 259.388 248.977 260 247.96 260H247.636ZM252.585 260.072C251.253 260.072 250.425 259.172 250.434 257.732C250.425 256.292 251.253 255.392 252.585 255.392C253.917 255.392 254.745 256.292 254.736 257.732C254.745 259.172 253.917 260.072 252.585 260.072ZM252.585 259.406C253.449 259.406 253.998 258.758 253.998 257.732C253.998 256.706 253.449 256.049 252.585 256.049C251.721 256.049 251.181 256.706 251.181 257.732C251.181 258.758 251.721 259.406 252.585 259.406ZM257.354 260.072C256.157 260.072 255.437 259.478 255.347 258.479L256.085 258.425C256.139 259.073 256.58 259.415 257.453 259.415C258.146 259.415 258.578 259.127 258.578 258.659C258.578 258.245 258.155 258.065 257.165 257.93C255.977 257.777 255.437 257.417 255.437 256.679C255.437 255.914 256.157 255.392 257.237 255.392C258.434 255.392 259.064 255.896 259.19 256.949L258.452 256.994C258.398 256.319 257.993 256.049 257.156 256.049C256.517 256.049 256.157 256.283 256.157 256.652C256.157 257.039 256.454 257.192 257.453 257.327C258.731 257.516 259.289 257.813 259.289 258.659C259.289 259.46 258.677 260.072 257.354 260.072ZM262.097 260.072C260.72 260.072 259.883 259.235 259.883 257.732C259.883 256.274 260.756 255.392 262.079 255.392C263.393 255.392 264.203 256.319 264.203 257.732C264.203 257.831 264.203 257.957 264.194 258.038H260.648C260.729 258.92 261.278 259.424 262.097 259.424C262.718 259.424 263.123 259.136 263.357 258.623L264.113 258.767C263.78 259.586 263.042 260.072 262.097 260.072ZM260.657 257.462H263.447C263.384 256.589 262.871 256.031 262.079 256.031C261.278 256.031 260.756 256.571 260.657 257.462ZM267.208 260.072C266.704 260.072 266.299 259.919 266.011 259.622L265.741 259.118L265.66 259.145L265.741 259.712V261.575H264.994V255.5H265.741L265.732 255.761L265.651 256.328L265.741 256.355L266.002 255.851C266.299 255.545 266.704 255.392 267.208 255.392C268.477 255.392 269.26 256.283 269.251 257.732C269.26 259.181 268.477 260.072 267.208 260.072ZM267.118 259.397C267.964 259.397 268.486 258.758 268.486 257.732C268.486 256.706 267.964 256.076 267.118 256.076C266.263 256.076 265.741 256.706 265.741 257.732C265.741 258.758 266.263 259.397 267.118 259.397ZM273.384 257.318C273.384 256.571 273.051 256.112 272.322 256.112C271.62 256.112 270.972 256.634 270.882 257.345V260H270.135V253.52H270.882L270.873 255.986L270.792 256.535L270.882 256.562L271.143 256.067C271.449 255.689 271.935 255.41 272.448 255.41C273.483 255.41 274.131 256.148 274.131 257.327V260H273.384V257.318Z" fill="white"/>
<path d="M208.002 217.096C205.474 217.096 203.97 215 203.97 211.384C203.97 207.768 205.474 205.624 208.002 205.624C210.53 205.624 212.034 207.768 212.034 211.384C212.034 215 210.53 217.096 208.002 217.096ZM208.002 215.928C209.682 215.928 210.658 214.248 210.658 211.384C210.658 208.504 209.682 206.792 208.002 206.792C206.338 206.792 205.346 208.504 205.346 211.384C205.346 214.248 206.338 215.928 208.002 215.928Z" fill="white"/>
<path d="M340.002 283.096C337.474 283.096 335.97 281 335.97 277.384C335.97 273.768 337.474 271.624 340.002 271.624C342.53 271.624 344.034 273.768 344.034 277.384C344.034 281 342.53 283.096 340.002 283.096ZM340.002 281.928C341.682 281.928 342.658 280.248 342.658 277.384C342.658 274.504 341.682 272.792 340.002 272.792C338.338 272.792 337.346 274.504 337.346 277.384C337.346 280.248 338.338 281.928 340.002 281.928Z" fill="white"/>
<path d="M77.0024 283.096C74.4744 283.096 72.9704 281 72.9704 277.384C72.9704 273.768 74.4744 271.624 77.0024 271.624C79.5304 271.624 81.0344 273.768 81.0344 277.384C81.0344 281 79.5304 283.096 77.0024 283.096ZM77.0024 281.928C78.6824 281.928 79.6584 280.248 79.6584 277.384C79.6584 274.504 78.6824 272.792 77.0024 272.792C75.3384 272.792 74.3464 274.504 74.3464 277.384C74.3464 280.248 75.3384 281.928 77.0024 281.928Z" fill="white"/>
<path d="M208.002 350.096C205.474 350.096 203.97 348 203.97 344.384C203.97 340.768 205.474 338.624 208.002 338.624C210.53 338.624 212.034 340.768 212.034 344.384C212.034 348 210.53 350.096 208.002 350.096ZM208.002 348.928C209.682 348.928 210.658 347.248 210.658 344.384C210.658 341.504 209.682 339.792 208.002 339.792C206.338 339.792 205.346 341.504 205.346 344.384C205.346 347.248 206.338 348.928 208.002 348.928Z" fill="white"/>
</g>
<path d="M383.505 41.4405H373.401C374.698 38.8888 375.917 36.4915 377.137 34.0942C372.82 38.7647 367.398 40.9887 361.026 41.5108V33.0009C363.554 32.4765 366.099 31.9498 368.089 29.8756H361V20.8858H369.941V27.5368C370.009 27.5485 370.076 27.5602 370.147 27.5696C371.27 25.3292 372.396 23.0887 373.53 20.8296H380.23V27.5298C380.319 27.5555 380.408 27.5813 380.497 27.607C381.665 25.3643 382.835 23.1215 384.02 20.8483H394C390.439 27.8341 386.988 34.6069 383.505 41.4382V41.4405Z" fill="white"/>
<defs>
<filter id="filter0_b_1414_2415" x="-8" y="-8" width="431" height="432" filterUnits="userSpaceOnUse" color-interpolation-filters="sRGB">
<feFlood flood-opacity="0" result="BackgroundImageFix"/>
<feGaussianBlur in="BackgroundImageFix" stdDeviation="4"/>
<feComposite in2="SourceAlpha" operator="in" result="effect1_backgroundBlur_1414_2415"/>
<feBlend mode="normal" in="SourceGraphic" in2="effect1_backgroundBlur_1414_2415" result="shape"/>
</filter>
<filter id="filter1_b_1414_2415" x="-8" y="-8" width="431" height="82.4856" filterUnits="userSpaceOnUse" color-interpolation-filters="sRGB">
<feFlood flood-opacity="0" result="BackgroundImageFix"/>
<feGaussianBlur in="BackgroundImageFix" stdDeviation="4"/>
<feComposite in2="SourceAlpha" operator="in" result="effect1_backgroundBlur_1414_2415"/>
<feBlend mode="normal" in="SourceGraphic" in2="effect1_backgroundBlur_1414_2415" result="shape"/>
</filter>
<clipPath id="clip0_1414_2415">
<rect width="178" height="19" fill="white" transform="translate(22 24)"/>
</clipPath>
<clipPath id="clip1_1414_2415">
<rect width="267" height="29" fill="white" transform="translate(77 135)"/>
</clipPath>
<clipPath id="clip2_1414_2415">
<rect width="313" height="167" fill="white" transform="translate(52 194)"/>
</clipPath>
<clipPath id="clip3_1414_2415">
<rect width="16" height="16" fill="white" transform="translate(224 246)"/>
</clipPath>
</defs>
</svg>
